<?xml version="1.0" encoding="UTF-8"?>
<svg width="145px" height="39px" viewBox="0 0 145 39" version="1.1" xmlns="http://www.w3.org/2000/svg" xmlns:xlink="http://www.w3.org/1999/xlink">
    <title>noun_Utility Belt_216580</title>
    <g id="Page-1" stroke="none" stroke-width="1" fill="none" fill-rule="evenodd">
        <g id="Artboard" transform="translate(-647.000000, -20.000000)" fill="#000000" fill-rule="nonzero" stroke="var(--)" stroke-width="0.4">
            <g id="noun_Utility-Belt_216580" transform="translate(719.500000, 39.500000) rotate(-360.000000) translate(-719.500000, -39.500000) translate(648.000000, 21.000000)">
                <path d="M33.5067769,36.8883409 C33.2968836,36.8258611 30.5492033,36.0795566 27.4008193,35.2304893 C18.9273253,32.945538 18.5434121,32.83998 18.485277,32.7791444 C18.4446954,32.7363951 18.1519718,28.3685653 18.1562613,27.8695491 C18.1567175,27.8169346 17.9185631,27.7281475 17.6270472,27.6719157 C16.5148899,27.4566893 13.8823263,26.8146274 12.5822829,26.4417218 C11.837002,26.2278107 11.2027108,26.0528673 11.1727464,26.0528673 C11.142782,26.0528673 11.1182657,26.3149536 11.1182657,26.6352447 C11.1182657,27.1316301 11.0883178,27.2500128 10.9154663,27.4369589 C10.8039287,27.5569858 10.584493,27.6776705 10.4278381,27.7039777 C10.2711897,27.730285 8.56050312,27.8634656 6.62633254,28.0004278 C2.82213976,28.2692553 2.69619389,28.2643227 2.4657029,27.832719 C2.41020154,27.7291341 1.8327146,22.7452207 1.18239652,16.7580136 L0,5.87222743 L0.467789935,4.17777582 C0.832962076,2.85502956 0.983149375,2.43564226 1.15242903,2.26591101 C1.36702644,2.05076682 1.38753513,2.04793879 3.12718886,1.99351561 C4.09403818,1.96326225 5.55825207,1.93465308 6.38099393,1.92972047 C7.68952945,1.92149945 7.89914221,1.9395857 8.05458935,2.06964229 C8.22227003,2.20989295 10.0991276,5.09825095 10.1019058,5.22025094 C10.1078133,5.48042989 10.272427,5.46959458 11.2482678,5.14478194 C19.0209959,2.55793821 37.0160199,0.78629118 62.0860502,0.139691231 C70.0793151,-0.0664755988 74.9995845,-0.0489483764 85.3226105,0.222394729 C109.618232,0.861151821 125.720327,2.54026301 131.907274,5.08019758 C132.365085,5.26813018 132.747471,5.40847949 132.757029,5.39205389 C132.766547,5.37561184 132.81448,5.24752829 132.863447,5.10727763 C132.912431,4.96702697 133.380531,4.17772649 133.903666,3.35315782 C134.622846,2.2196102 134.9155,1.82878274 135.103555,1.75073234 C135.294977,1.67131726 136.065854,1.6652337 138.449449,1.72442507 C141.367725,1.7969345 141.56013,1.8114035 141.780673,1.97467303 C141.983647,2.12495334 142.080153,2.37725655 142.507359,3.87446937 L143,5.60098298 L141.844329,16.3153937 C141.208707,22.2083879 140.643565,27.1811206 140.588452,27.3659292 C140.519416,27.5974333 140.402414,27.7518241 140.212358,27.8624791 C139.940024,28.0203227 139.888853,28.0203227 136.227033,27.7523173 C132.419876,27.4737891 132.157099,27.4321907 131.967849,27.0778646 C131.919817,26.9874333 131.880532,26.4555331 131.880532,25.8945304 L131.880532,24.8747947 L131.150353,25.2177758 C130.200028,25.6638485 128.024052,26.3782555 126.368209,26.787498 C125.645247,26.9662231 125.039893,27.1206139 125.022981,27.1306435 C125.006079,27.1470856 124.921978,28.3600154 124.836114,29.8402929 C124.750241,31.3205704 124.663748,32.5479693 124.643896,32.5678641 C124.624023,32.5875946 121.130645,33.5435352 116.880807,34.6918478 L109.153811,36.7796589 L106.545559,35.2962574 C104.786,34.29543 103.927263,33.7610635 103.906469,33.6540258 C103.889517,33.5668829 103.902859,32.8024921 103.936285,31.9557267 L103.996936,30.415929 L104.221526,30.2761716 L104.446113,30.1364142 L104.191698,30.1364142 C104.051771,30.1364142 103.059554,30.223557 101.98677,30.3253333 L100.036257,30.5096487 L100.012873,31.9966674 L99.9894888,33.4836862 L99.5040414,33.7960851 C98.1886072,34.6425217 96.859771,35.1926726 95.5225084,35.4444003 C94.477556,35.6410472 92.5177828,35.5759367 91.5133594,35.3095755 C90.1999534,34.9624839 88.6087305,34.1795136 87.8031434,33.484015 L87.4427226,33.1727671 L87.4427226,32.2372146 L87.4427226,31.3016621 L87.1247032,31.349344 C86.9497939,31.3756513 86.1006847,31.4184006 85.2377929,31.4463521 C83.1868991,31.5121203 83.2354181,31.5006108 83.1692241,31.915937 C82.8893362,33.6696457 81.0586001,35.0950068 78.7064939,35.3904704 C77.4842052,35.5433814 77.6053459,35.6604488 77.6053459,34.3332467 L77.6053459,33.1860851 L75.7158577,33.1860851 L73.8263678,33.1860851 L73.2914464,32.5487914 L72.7565233,31.9114976 L71.5033136,31.9114976 L70.2501055,31.9114976 L69.4542642,32.8442549 L68.658423,33.7770123 L66.7715112,33.7770123 L64.8846026,33.7786565 L64.8846026,34.9268046 L64.8846026,36.0749528 L64.5665815,36.0338477 C64.3916739,36.012473 64.0005092,35.9697237 63.6973341,35.9417722 C63.3941541,35.9138207 62.8598825,35.795438 62.5100624,35.6788639 C60.784049,35.1050364 59.6425197,33.9435702 59.329013,32.4422469 C59.2657695,32.13922 59.2019188,31.8812442 59.1871499,31.8687483 C59.1723811,31.8523062 58.2348376,31.8194221 57.1037515,31.7865381 L55.0472308,31.7273467 L55.0368926,32.0091634 C55.0311492,32.1637186 55.0025468,32.6865757 54.9732881,33.1703007 L54.9200709,34.0497858 L54.1379434,34.5415675 C51.7242264,36.0596617 48.94542,36.5157641 46.3969437,35.8125377 C45.1570046,35.4703787 43.7246306,34.7623842 42.7962257,34.0328505 L42.417759,33.7354139 L42.4146411,32.3546108 C42.412836,31.5951526 42.4018414,30.9713413 42.3902233,30.9685462 C42.3785723,30.9685462 41.6542402,30.8978454 40.7806229,30.8172794 L39.1922225,30.6725894 L39.1693308,32.3657914 L39.146439,34.0591578 L36.559887,35.5320364 C35.1372834,36.3421361 33.9542536,37.0027775 33.9309319,37 C33.9076136,37 33.7167999,36.9440794 33.5069082,36.8815996 L33.5067769,36.8883409 Z M36.3053392,33.895395 L37.6198184,33.1408695 L37.6438752,32.333565 L37.667932,31.5262604 L37.0486607,31.0930125 L36.4293927,30.659929 L36.2019982,25.5423418 C36.0769388,22.7277921 35.9569189,20.407326 35.9353005,20.3856225 C35.9136724,20.3642479 35.3584191,20.5829271 34.7013806,20.8724715 L33.5067704,21.398617 L33.5076828,21.8775739 C33.5081389,22.1411399 33.6033849,25.1097515 33.7191416,28.4746165 C33.8348966,31.8394814 33.9298538,34.7392009 33.9301607,34.9185836 L33.930845,35.244465 L34.4608763,34.9471928 C34.7523922,34.7827723 35.5824217,34.3103923 36.3053835,33.895395 L36.3053392,33.895395 Z M32.3717131,34.2314705 C32.343882,33.8225568 32.238498,30.830433 32.1375217,27.582471 C32.036552,24.3343446 31.942988,21.6631696 31.9296025,21.6463987 C31.9016893,21.6118704 27.1588332,20.6220592 26.9979971,20.6176198 C26.9205262,20.6176198 26.8892819,20.8492882 26.8819631,21.4857599 C26.8671943,22.7659377 26.8835598,22.7325603 25.9399233,23.4032314 L25.1150564,23.9893904 L24.062219,23.7787678 L23.0093817,23.5681452 L22.2581309,22.8121398 L21.5068802,22.0559701 L21.4783599,20.7562263 L21.4498396,19.456318 L20.3411907,19.2276091 C19.7314371,19.1010054 19.2241399,19.0089299 19.2138707,19.0209326 C19.1832171,19.0571051 19.9147777,31.5818346 19.9489462,31.6064976 C19.9873945,31.6344491 32.24774,34.9568936 32.3497141,34.9674165 C32.3896556,34.9674165 32.3995508,34.6403842 32.3717033,34.2314705 L32.3717131,34.2314705 Z M109.403029,28.049754 C109.498288,24.8718351 109.593849,22.023086 109.615408,21.7194014 L109.654611,21.167113 L108.420266,20.6301158 C107.741378,20.3346522 107.175906,20.1052856 107.163661,20.1202479 C107.144889,20.1432667 106.686414,30.0810045 106.69167,30.3513117 C106.692583,30.4022821 106.426333,30.6281958 106.099836,30.8537807 L105.506199,31.2638454 L105.506199,32.089565 L105.506199,32.9152846 L107.308304,33.9440635 L109.11041,34.9728424 L109.170142,34.4003303 C109.202995,34.0854651 109.307804,31.2276729 109.403042,28.049754 L109.403029,28.049754 Z M115.107013,33.5665541 C117.45265,32.9322199 120.209702,32.1864086 121.233806,31.9091957 C122.257911,31.6319828 123.121259,31.3766378 123.152366,31.3419451 C123.183479,31.3074168 123.348613,28.7932634 123.51935,25.7555951 C123.69008,22.7177625 123.85283,19.9005821 123.881018,19.4951212 L123.932266,18.7580243 L122.966516,18.9637143 C122.435349,19.0771644 121.9149,19.189628 121.809954,19.2139622 C121.622358,19.2583558 121.619143,19.2797304 121.619143,20.5544823 L121.619143,21.8504445 L120.8771,22.5903366 L120.135055,23.3300643 L119.087215,23.5438109 C118.510896,23.6621937 117.995706,23.731908 117.942346,23.7000104 C117.888981,23.6687705 117.497918,23.396819 117.073307,23.0962584 L116.301303,22.5495603 L116.25122,21.4875685 C116.223668,20.903547 116.188715,20.4132452 116.173519,20.397954 C116.139994,20.36507 111.261278,21.3624445 111.210556,21.4134149 C111.172043,21.4528758 110.770384,32.8528048 110.766378,34.0187104 C110.765088,34.404112 110.781718,34.7196349 110.803166,34.7196349 C110.824646,34.7196349 112.761388,34.2007238 115.107018,33.5662252 L115.107013,33.5665541 Z M50.2270942,34.2597508 C51.0132536,34.1068398 51.9601474,33.7691201 52.6839609,33.3817455 L53.2464542,33.0805272 L53.2842789,30.6076433 C53.3050866,29.2475571 53.3126843,28.1219346 53.3011646,28.1063146 C53.2896777,28.0898726 52.9853227,28.1770154 52.6248724,28.2983577 C51.3600182,28.7240423 50.3700469,28.8813927 48.8988833,28.8906003 C48.0758608,28.8906003 47.2937744,28.8527836 46.9110968,28.7820828 C46.2585332,28.6620558 45.0670114,28.3026327 44.5089619,28.0581394 L44.1896773,27.918382 L44.2121423,30.444867 L44.2346074,32.971352 L44.9978505,33.3777994 C45.79944,33.8046349 46.8039833,34.1650446 47.5328953,34.2870446 C48.2264786,34.4037831 49.5529845,34.3889853 50.2270975,34.2590931 L50.2270942,34.2597508 Z M63.1885142,33.0205137 L63.1885142,32.0009423 L65.5418528,32.0009423 L67.8951882,32.0009423 L69.7440817,29.8606811 L71.5929736,27.7204198 L71.5375084,25.0862394 C71.5070025,23.6375306 71.4517506,22.3083555 71.4147135,22.13259 C71.3678799,21.9102935 70.8739732,21.179609 69.7922266,19.7322156 L68.2370725,17.6513101 L65.5007757,17.6513101 L62.7644806,17.6513101 L62.7644806,16.3767226 C62.7644806,15.3148952 62.7437714,15.1021351 62.640455,15.1021351 C62.3498876,15.1021351 61.5643435,15.4729032 61.2356823,15.7650784 L60.8801795,16.081259 L60.8978529,21.6459054 C60.9075347,24.7064281 60.9403708,28.3577135 60.9707618,29.7597269 L61.025981,32.3089019 L61.2516294,32.6911795 C61.375737,32.9016377 61.5856271,33.1767131 61.7180562,33.3026592 C61.9668868,33.5394247 62.895441,34.0478128 63.0825017,34.0497858 C63.1614822,34.0497858 63.1885092,33.7908236 63.1885092,33.031201 L63.1885142,33.0205137 Z M63.2733202,24.8208647 L63.2733202,19.1702264 L65.3298409,19.1702264 L67.3863617,19.1702264 L68.5524286,20.7374823 L69.7184988,22.3047383 L69.7184988,24.7381613 L69.7184988,27.1714198 L68.7667395,28.7421286 C68.1253822,29.8005032 67.750199,30.3375004 67.6163505,30.3884708 C67.5071102,30.4295759 66.4852316,30.4641042 65.3455222,30.4641042 L63.2733202,30.4641042 L63.2733202,24.8134658 L63.2733202,24.8208647 Z M67.399734,27.6248915 L68.0210878,26.6051557 L68.0217721,24.7846922 L68.0224563,22.9640644 L67.2380118,21.9180213 L66.4535656,20.8721427 L65.7539254,20.8704985 L65.0542377,20.8688543 L65.0542377,24.7805817 L65.0542377,28.6921448 L65.9163172,28.6674817 L66.7783967,28.6428186 L67.3997472,27.6232473 L67.399734,27.6248915 Z M95.6755253,33.6252522 C96.4156863,33.4346889 97.2137264,33.1143978 97.8525451,32.7513574 L98.2977704,32.4983143 L98.2977704,29.9128023 C98.2977704,28.4908941 98.2644092,27.3274548 98.2236307,27.3274548 C98.1828523,27.3274548 97.9825045,27.3882904 97.7784055,27.4622796 C96.8320581,27.8041098 95.6172523,28.0181852 94.3466005,28.0671826 C92.5674193,28.1362391 91.2594565,27.9241367 89.8518104,27.3427459 L89.2503077,27.0939778 L89.1922825,29.694452 L89.1342573,32.2949262 L89.3273584,32.4445488 C89.9694247,32.9434005 91.6925696,33.6183465 92.7430472,33.7822737 C93.4719724,33.8957239 94.9259959,33.8184462 95.6755269,33.6260743 L95.6755253,33.6252522 Z M79.8635354,33.3079207 C80.6151865,32.9933843 81.1635197,32.4415892 81.4157603,31.7459262 C81.498187,31.5186971 81.5397859,29.5759048 81.5921973,23.5038568 L81.6607905,15.5588951 L81.4359904,15.3204854 C81.2263481,15.098189 80.4211516,14.6585286 80.0121462,14.5431055 C79.7721375,14.4756931 79.7254892,14.7254478 79.7254892,16.0794503 L79.7254892,17.1309193 L76.9797552,17.1309193 L74.2340211,17.1309193 L73.2439153,18.452531 C72.699358,19.1794339 72.2357914,19.8213315 72.2137662,19.8787142 C72.1917441,19.9362614 72.3992203,20.2879568 72.6748269,20.6602047 L73.1759342,21.3369594 L73.2713903,24.650854 C73.3238854,26.4734549 73.3664525,28.051727 73.3659766,28.1579427 C73.3655204,28.264816 73.2096565,28.5199965 73.0153623,28.7311124 C72.6032849,29.1789938 72.5264114,29.00701 73.7891405,30.4627888 L74.6795926,31.4892658 L76.9905282,31.4892658 L79.3014622,31.4892658 L79.3014622,32.4664167 C79.3014622,33.5517562 79.296047,33.5436996 79.8635403,33.3062765 L79.8635354,33.3079207 Z M59.2024226,25.8192259 C59.2022519,23.4474605 59.1774468,20.8540564 59.1472363,20.0561239 L59.0923125,18.6052776 L57.1806743,18.5082696 C56.1292711,18.4540108 55.2555948,18.4244151 55.2391702,18.4408572 C55.1824742,18.4967601 55.0287008,29.8874816 55.0838674,29.9427269 C55.1142913,29.9739668 55.9103606,30.0216487 56.8529123,30.0512444 C57.7954657,30.0808401 58.7097532,30.1104358 58.884664,30.1186568 L59.2026818,30.1350988 L59.2024537,25.8228431 L59.2024226,25.8192259 Z M86.1372623,29.6548266 L87.4183359,29.5989237 L87.4758853,24.3206977 C87.5075398,21.4176898 87.5522731,18.8895606 87.5752797,18.7026146 C87.5983027,18.5156685 87.5866025,18.3173774 87.5494342,18.2619677 C87.497497,18.1846901 87.0086593,18.1830459 85.4481195,18.2455256 C84.3296214,18.296496 83.4066253,18.3425337 83.3970157,18.3491105 C83.3873339,18.3491105 83.3525942,20.9374176 83.3196597,24.085412 L83.2597638,29.809053 L84.0579647,29.7564385 C84.4969772,29.7268428 85.4326532,29.6775167 86.1372459,29.647921 L86.1372623,29.6548266 Z M42.4400747,26.888781 C42.5389604,22.8154282 42.5110965,17.6394718 42.3900904,17.6065877 C42.1950643,17.5539731 37.4507182,17.1524583 37.4133858,17.1858357 C37.3332238,17.2581807 37.8690527,28.6676461 37.9567091,28.7556111 C38.0148,28.8131582 41.3654467,29.168142 42.0372443,29.1870504 L42.38404,29.2034924 L42.4400632,26.8955223 L42.4400747,26.888781 Z M102.707628,28.5167081 C103.75709,28.4229885 104.753811,28.3243362 104.922573,28.2983577 L105.229406,28.2506758 L105.284165,27.3003255 C105.314277,26.7776328 105.413212,24.5719322 105.504014,22.3987868 C105.59481,20.2256414 105.690857,18.0883397 105.717436,17.6491726 L105.765763,16.8509112 L105.275555,16.9018815 C105.005943,16.929833 103.77405,17.0367063 102.538018,17.1368384 C101.301986,17.2387791 100.280197,17.329868 100.267381,17.3408842 C100.229557,17.3737683 100.034701,28.4941825 100.068131,28.7128617 C100.073875,28.7506785 100.240863,28.7605437 100.439096,28.7342364 C100.637326,28.7079291 101.658165,28.6092768 102.707628,28.5157216 L102.707628,28.5167081 Z M50.4519238,27.0285384 C51.2767251,26.8937136 52.9577985,26.3897649 53.1996615,26.2034765 C53.3199949,26.111401 53.3436907,25.8573714 53.3667137,24.4172125 C53.3814826,23.494156 53.3631035,22.7389727 53.3260665,22.7389727 C53.2889475,22.7389727 52.9645741,22.8326924 52.6052249,22.9476223 C51.2589565,23.3775818 50.630371,23.4617651 48.8140772,23.4551883 C47.2667441,23.4551883 47.0463386,23.4305252 46.301207,23.2289457 C45.6228685,23.0461102 45.0193835,22.8303905 44.2964266,22.5120725 C44.2108,22.4742558 44.1933563,22.8205253 44.2116205,24.1950804 L44.2346107,25.9254415 L45.0261443,26.321366 C45.7040119,26.660401 46.7083664,26.9769104 47.499603,27.1012123 C48.0406486,27.1867109 49.7398056,27.1439616 50.4519304,27.0288673 L50.4519238,27.0285384 Z M6.92998353,26.2190964 C8.22705679,26.1237326 9.30565269,26.0280399 9.32686405,26.0068296 C9.34808198,25.985455 9.25603918,23.5400293 9.12235312,20.5724042 L8.87928563,15.1766175 L8.45108558,15.1782617 C7.66947499,15.1782617 2.87468604,15.4201243 2.83832741,15.4564612 C2.80563736,15.4893453 3.84639972,25.3386248 3.960211,26.0735843 C4.02033666,26.4617811 3.78343713,26.4502716 6.92998353,26.2182743 L6.92998353,26.2190964 Z M95.9431747,26.1303094 C96.3972482,26.0398781 97.1223301,25.8368188 97.5544702,25.680455 L98.3401701,25.3965008 L98.3630618,23.6510131 L98.3859536,21.9056898 L97.727018,22.1168057 C95.0496162,22.9750805 92.1605996,22.893528 89.8151065,21.8935227 L89.2236253,21.6413017 L89.2236253,23.3387786 L89.2236253,25.03642 L89.6144568,25.2846949 C90.0425354,25.5566464 91.2279052,26.0109401 91.8693709,26.1487245 C93.1300389,26.4196894 94.533356,26.413277 95.9431616,26.1306382 L95.9431747,26.1303094 Z M139.035937,25.8611531 C139.153596,25.0285278 140.194756,15.2359733 140.168405,15.2095016 C140.13145,15.1716849 134.157242,14.9035151 134.131826,14.9377146 C134.083762,15.0018386 133.639264,25.7184361 133.682835,25.762172 C133.709944,25.7901234 134.889712,25.8986409 136.304539,26.0048566 C137.719364,26.1117299 138.901232,26.2036409 138.930922,26.2102177 C138.960608,26.2102177 139.007852,26.0605951 139.035945,25.8611531 L139.035937,25.8611531 Z M18.0374097,25.6911423 C18.0140093,25.5398755 17.9721806,24.8797273 17.9444644,24.2253338 C17.9167482,23.5711047 17.8388999,22.1755038 17.7714587,21.1238704 C17.7040143,20.0724015 17.6487131,19.0937709 17.648549,18.9494097 C17.6483209,18.7157682 17.6099531,18.6751563 17.3024572,18.5829165 C17.0400606,18.5039946 16.9296486,18.4137278 16.844644,18.2082022 C16.782582,18.0585796 16.6685418,17.0659732 16.5889278,15.9830999 C16.5013485,14.7922025 16.4069016,13.993119 16.3470993,13.9376106 C16.2931273,13.8874624 15.8864274,13.7572907 15.4433207,13.6483786 C14.4025232,13.3925403 12.4919647,12.8114784 11.4202511,12.4248601 C10.9566649,12.2576116 10.5580715,12.1401003 10.5344856,12.1637275 C10.4951348,12.2031884 10.8902625,21.5931265 11.0067805,23.3877759 L11.0572244,24.1646626 L12.0842048,24.4690049 C13.9822507,25.0314874 17.5490561,25.9413903 17.9277099,25.9599698 C18.0526053,25.9599698 18.0723135,25.9172205 18.0374097,25.6911423 L18.0374097,25.6911423 Z M126.841746,24.8540777 C128.502625,24.3991262 129.645213,23.9921856 130.735667,23.4676843 C132.193822,22.7662665 131.995541,23.5564713 132.267914,17.3639031 C132.396912,14.4312995 132.478988,12.0084817 132.450305,11.9797574 C132.421621,11.9509838 132.119499,12.0435526 131.778921,12.1855625 C130.893685,12.5544727 129.040356,13.1546403 127.788728,13.4777101 L126.714292,13.7550381 L126.670166,14.1044316 C126.645896,14.2964747 126.585295,15.0080865 126.535507,15.6858277 C126.409496,17.4005688 126.30347,17.967655 126.063897,18.2077089 C125.955657,18.3162264 125.790756,18.4048491 125.697471,18.4048491 C125.474434,18.4048491 125.467931,18.4541752 125.309387,21.3788866 C125.237167,22.7106924 125.154396,24.1393419 125.125446,24.5533526 L125.072803,25.3060696 L125.36008,25.2435898 C125.51809,25.2090615 126.184834,25.0339537 126.841741,24.8540777 L126.841746,24.8540777 Z M25.0642581,22.1122019 C25.304001,21.9199944 25.3157045,21.878396 25.349809,21.0970699 C25.3847292,20.2969999 25.3817754,20.2815444 25.1846259,20.2363287 C25.0742205,20.2116657 24.6022554,20.1113692 24.1358287,20.0146899 C23.6694019,19.9176818 23.2149428,19.8175498 23.1259227,19.7915713 C22.9719163,19.7471778 22.9667144,19.7915713 23.01875,20.5784877 L23.0734276,21.4124284 L23.4211719,21.7675766 C23.6500908,22.0012181 23.889558,22.1516628 24.121982,22.2078946 C24.6702151,22.3410752 24.7957472,22.3279215 25.0642581,22.1125307 L25.0642581,22.1122019 Z M119.022923,21.9773771 C119.230102,21.9296952 119.489919,21.7656035 119.722564,21.5368947 L120.092646,21.1730322 L120.092646,20.383485 C120.092646,19.882167 120.059711,19.5939379 120.002441,19.5939379 C119.827927,19.5939379 117.857254,20.0209379 117.80917,20.0692775 C117.782406,20.0955848 117.772478,20.4684904 117.787132,20.8968058 C117.811944,21.6223933 117.829338,21.6888192 118.041547,21.8663933 C118.28732,22.0722477 118.507627,22.0972396 119.022926,21.976555 L119.022923,21.9773771 Z M50.8493915,21.589838 C51.7202864,21.4117707 53.3579574,20.8708273 53.3940607,20.749485 C53.4093219,20.6985147 53.4450297,19.4755552 53.4733859,18.0327656 C53.5222708,15.5457415 53.5171181,15.4119032 53.3744345,15.4582698 C51.7964133,15.9710973 50.7623307,16.1305851 48.9836779,16.1350245 C47.3442904,16.1350245 46.1078499,15.9771808 44.9829191,15.6095366 L44.2770039,15.3788547 L44.2770039,17.9443073 L44.2770039,20.5095955 L44.9384271,20.8543853 C45.6685863,21.2350187 46.8106342,21.5957572 47.6654015,21.7157841 C48.4214619,21.8210132 50.0251301,21.7585335 50.8493882,21.5891804 L50.8493915,21.589838 Z M95.3719974,20.8647438 C96.1697503,20.7496494 96.9269234,20.5576063 97.75852,20.2580322 L98.4489428,20.0094285 L98.484388,17.4862319 C98.5038993,16.0983587 98.5071485,14.9461 98.4916083,14.9255475 C98.4761831,14.905817 98.2067138,14.969941 97.8929429,15.0702375 C96.6345837,15.4709302 95.9094476,15.5584019 93.8878421,15.5534693 C91.8807888,15.5534693 91.0221915,15.4350865 89.8090546,15.0176229 L89.3346378,14.8548467 L89.2791069,16.5163155 C89.2485518,17.4301645 89.2235596,18.5069542 89.2235596,18.9092911 L89.2235596,19.6407978 L90.1352133,20.0824312 C90.9433192,20.4739163 91.9461804,20.7861508 92.7429668,20.8945039 C93.2624991,20.9652047 94.7974511,20.9487626 95.3719186,20.8665524 L95.3719974,20.8647438 Z M31.5143038,18.8080081 C31.4888522,18.1886362 31.4288414,16.1730056 31.380941,14.3287012 C31.3330407,12.484446 31.2758852,10.9574731 31.2539453,10.9354901 C31.2082275,10.8896168 17.7144723,8.96627544 17.6449848,8.99567382 C17.5858109,9.02066573 18.1934509,17.1095446 18.2594776,17.1756416 C18.3253795,17.2414098 21.1405731,17.8224718 21.1839722,17.7790648 C21.2023841,17.7609785 21.1870901,17.1672562 21.1501351,16.4604126 C21.1064193,15.6256498 21.1121792,15.1754666 21.1665778,15.1754666 C21.2126402,15.1754666 22.6570066,15.4314693 24.3762706,15.7443614 L27.5022059,16.3132563 L27.441391,17.6945526 L27.3805761,19.075849 L27.5814966,19.1268194 C28.0333399,19.2402695 31.2705028,19.9137358 31.4099832,19.9237654 C31.5493027,19.9402075 31.5570974,19.8497762 31.5142841,18.8086658 L31.5143038,18.8080081 Z M34.46192,19.2835121 C35.1726236,18.972593 35.7847091,18.6915984 35.8221137,18.6588787 C35.8595117,18.6259946 35.8378671,17.456143 35.7740656,16.0588978 C35.7102314,14.6616526 35.666893,13.5057274 35.6777563,13.4901896 C35.6885868,13.4753918 36.0091891,13.52554 36.390142,13.6034753 C36.7710948,13.6814106 37.103463,13.7243244 37.1287358,13.6990036 C37.1773418,13.6503352 36.9154965,9.81049235 36.8597522,9.75465516 C36.8147236,9.70960395 32.9749684,10.7452885 32.9017543,10.8223031 C32.8692628,10.8565025 32.8951903,12.7580417 32.9594677,15.0480407 C33.0236958,17.3379246 33.077717,19.355035 33.0794893,19.5303072 C33.0812944,19.7055794 33.102299,19.8489541 33.1262245,19.8489541 C33.15015,19.8489541 33.7511999,19.5945956 34.4619035,19.2836765 L34.46192,19.2835121 Z M113.748836,19.2835121 L115.695389,18.8849569 L115.673925,17.4812993 L115.652461,16.0778061 L118.824244,15.5054585 C120.568725,15.1905933 122.007085,14.944127 122.020595,14.9577739 C122.034051,14.9742159 122.012226,15.5523183 121.971924,16.2488034 C121.931638,16.945453 121.911142,17.5302966 121.92637,17.5485473 C121.961979,17.5912966 124.707293,17.0469004 124.819287,16.9748842 C124.890129,16.9288465 125.561627,8.81101319 125.49877,8.75999351 C125.483016,8.74683988 117.545252,9.86077213 112.155506,10.6318713 L111.808418,10.6815262 L111.751952,12.9938042 C111.720888,14.2655637 111.670674,16.2907307 111.640381,17.4941241 C111.596321,19.2435579 111.60702,19.6820673 111.693779,19.6820673 C111.753461,19.6820673 112.67823,19.5026846 113.748842,19.2835121 L113.748836,19.2835121 Z M110.034388,19.3213288 C110.08301,18.9956118 110.280626,10.5843702 110.240369,10.5542812 C110.181687,10.510381 106.247887,9.47951394 106.229663,9.50323982 C106.186537,9.5593072 105.941071,13.4337934 105.978275,13.4710675 C106.000379,13.4932643 106.332541,13.4510082 106.716393,13.377019 C107.100246,13.3031942 107.424156,13.2517306 107.43619,13.2627468 C107.448169,13.2742562 107.404863,14.4263669 107.339831,15.8241054 C107.274782,17.2218438 107.239353,18.3846254 107.261113,18.4079731 C107.311294,18.4622318 109.853049,19.5904851 109.93342,19.5944475 C109.966288,19.5960754 110.011727,19.4727601 110.034406,19.3213288 L110.034388,19.3213288 Z M25.8743316,18.169399 L25.8743316,17.5909677 L24.5386525,17.3535446 C23.8040299,17.2236524 23.0980276,17.0962265 22.9697585,17.0717279 L22.7365467,17.0273344 L22.7365467,17.5427925 C22.7365467,17.8469704 22.7775385,18.0835715 22.8365483,18.1200728 C22.9573575,18.1957062 25.4138337,18.7304016 25.6835212,18.7405957 C25.8634256,18.7405957 25.8743316,18.7142884 25.8743316,18.1695634 L25.8743316,18.169399 Z M120.329896,17.353709 C120.352689,16.8349624 120.340398,16.7836632 120.202687,16.8239462 C120.118833,16.8486093 119.496888,16.9669921 118.82057,17.0868546 C118.144248,17.2068815 117.505032,17.3246066 117.400086,17.3482831 C117.231086,17.3860998 117.209274,17.443647 117.209274,17.8502588 C117.209274,18.614814 117.113162,18.5913019 118.803498,18.2399354 L120.304654,17.9278653 L120.329893,17.353709 L120.329896,17.353709 Z M72.0241849,16.88955 C72.1816701,16.8517333 72.4249001,16.6060891 72.8108727,16.0924396 L73.369595,15.3489302 L75.6994889,15.3489302 L78.0293844,15.3489302 L78.0293844,14.5842106 L78.0293844,13.8194416 L71.2423757,13.8194416 L64.4553687,13.8194416 L64.4791794,14.8602725 L64.5029901,15.9012186 L66.8351272,15.9258816 L69.1672643,15.9505447 L69.5348513,16.4569598 L69.9024367,16.9633748 L70.8493272,16.9469328 C71.3701182,16.9469328 71.8988022,16.9124045 72.0241849,16.8828088 L72.0241849,16.88955 Z M59.1178774,16.1688951 C59.1178774,15.6141404 59.145167,15.5072671 59.362046,15.2129545 C59.660098,14.8084801 60.148358,14.3451432 60.6019621,14.0363616 L60.9411815,13.805581 L58.1666301,13.8379718 C56.6406248,13.8557292 55.3742396,13.8882845 55.3524391,13.9101524 C55.3306304,13.9320203 55.285651,14.5690839 55.2524539,15.3257469 L55.1920985,16.7017818 L55.9889178,16.7297333 C56.4271672,16.7461754 57.3104663,16.7659058 57.9518039,16.775771 L59.1178741,16.7938573 L59.1178741,16.1692239 L59.1178774,16.1688951 Z M86.213061,16.4686336 L87.4851355,16.4110864 L87.5086016,15.1577092 L87.532084,13.9044141 L85.0108579,13.9044141 L82.4896319,13.9044141 L82.7910002,14.2229788 C83.3360055,14.7992725 83.3721039,14.8933211 83.3721039,15.735976 C83.3721039,16.161825 83.3902696,16.5283182 83.4124557,16.5506794 C83.4520691,16.5901403 83.6480501,16.5852077 86.2130708,16.4684692 L86.213061,16.4686336 Z M42.4961028,15.0929275 L42.4961028,14.3272214 L42.178085,14.3683265 C42.0031742,14.3913454 41.1922277,14.4538251 40.3759792,14.5064397 C39.5597307,14.5590542 38.8747495,14.6198898 38.8537991,14.6379761 C38.8070638,14.6807254 38.8498607,15.4604073 38.9018799,15.5131862 C38.9385395,15.5510029 41.6779098,15.8257496 42.2204815,15.8467954 L42.4961028,15.8632374 L42.4961028,15.0975313 L42.4961028,15.0929275 Z M102.538018,15.382472 C103.447551,15.3068385 104.204462,15.2328493 104.220046,15.2180515 C104.235635,15.2016094 104.268865,15.0389976 104.293907,14.8518871 L104.339444,14.5118656 L103.968761,14.4641836 C103.385318,14.3885502 100.38748,14.2524101 100.314218,14.2977901 C100.277953,14.320809 100.248284,14.6235071 100.248284,14.971914 L100.248284,15.6050973 L100.566303,15.562348 C100.741212,15.5393291 101.628484,15.4571189 102.538018,15.3819787 L102.538018,15.382472 Z M50.5101706,14.3199869 C50.9299556,14.2690165 51.5596341,14.1534289 51.9094525,14.0644775 C52.5824661,13.8931513 53.4535858,13.499019 53.4983896,13.3455654 C53.5311764,13.2332662 52.8648121,12.8684829 52.2910781,12.6847102 C51.0483034,12.2866482 48.622133,12.1404127 47.0331697,12.3677733 C46.1781217,12.4901021 44.8494842,12.8975525 44.5404278,13.1321969 C44.2878376,13.3239441 44.3469032,13.4260657 44.8614978,13.6873462 C46.0290826,14.2801971 48.542327,14.561685 50.5101706,14.3199869 Z M95.0751811,13.8166794 C96.6116953,13.6807036 98.0726306,13.2748646 98.4233467,12.8865692 C98.5521968,12.7438522 98.5422688,12.7224776 98.2683557,12.5529107 C96.5214411,11.4711556 91.864699,11.4243451 89.8016652,12.4677409 C89.3160471,12.7133687 89.29861,12.732984 89.4334333,12.8822614 C89.7692541,13.2540654 91.2694517,13.6889247 92.6375943,13.8110233 C93.7685622,13.9119775 93.9917262,13.9124707 95.0751778,13.8159559 L95.0751811,13.8166794 Z M6.10499352,13.5236492 C7.56885969,13.4555791 8.77361937,13.3891533 8.78223618,13.3759996 C8.80706427,13.3380185 8.48046576,6.55963654 8.45244924,6.53156997 C8.41895675,6.49802819 1.92624003,6.77160742 1.8898028,6.80810876 C1.85837795,6.83951307 2.54687221,13.3741581 2.59942998,13.5432481 C2.64111754,13.6774152 2.81478043,13.6764287 6.10499352,13.5236821 L6.10499352,13.5236492 Z M140.770359,9.9670042 C140.972331,8.10518898 141.125048,6.57045541 141.109722,6.55649611 C141.079184,6.52870905 134.562135,6.26088455 134.536644,6.28643549 C134.502282,6.32079937 134.204675,13.1000034 134.235781,13.1396945 C134.282812,13.199708 138.348007,13.3714452 139.470427,13.3608729 L140.403136,13.3526519 L140.770359,9.96754679 L140.770359,9.9670042 Z M40.8807066,12.7032075 L42.615107,12.5991293 L43.0856362,12.1195148 C44.1969337,10.9867729 46.4864479,10.4216761 49.514272,10.532775 C51.8142771,10.6171227 53.469354,11.0484799 54.5172881,11.836465 L54.7929866,12.0437827 L70.7150373,12.0745294 C79.4721656,12.0914647 86.8497333,12.1320765 87.1096471,12.165125 L87.582203,12.2249741 L87.8860099,11.8012461 C88.7064461,10.6570276 90.9544484,9.97948371 93.930314,9.97948371 C97.3096403,9.97948371 99.765209,10.8651017 100.250098,12.258779 L100.337415,12.5097504 L102.343436,12.6111978 C103.446739,12.6671008 104.371209,12.6909417 104.397794,12.66447 C104.424378,12.6379983 104.525725,11.5104027 104.623001,10.1587514 C104.720279,8.80709998 104.819012,7.68203646 104.842407,7.65860654 C104.904404,7.5964556 105.146257,7.55732353 112.725224,6.3838875 L119.64744,5.31207977 L122.901822,6.12679965 C124.691732,6.57489476 126.232527,6.97631091 126.325814,7.0188136 C126.419104,7.0613985 126.581704,7.12042545 126.687167,7.15002113 C126.792617,7.17961682 126.939641,7.32156101 127.013879,7.46539604 C127.137675,7.70523618 127.136362,7.89481299 126.998125,9.75287942 C126.915223,10.8671734 126.872672,11.8041892 126.903572,11.835166 C126.986031,11.9178695 128.603608,11.4806755 130.014855,10.9944184 C131.221595,10.5786319 132.338367,10.0854363 132.527364,9.88485973 C132.583404,9.82533952 132.644071,9.28405088 132.674035,8.57566172 L132.725152,7.36787826 L132.102083,7.07162545 C126.545109,4.42943779 110.808937,2.68487081 86.4250942,2.00775443 C74.5439604,1.67781186 68.628882,1.67827224 58.0154298,2.00939863 C35.3962061,2.7162258 19.0579673,4.4242421 11.6907493,6.85220633 C10.9561447,7.09429904 10.335751,7.32374781 10.3120994,7.3621071 C10.2884529,7.40041707 10.294344,8.04550435 10.3252273,8.79555766 L10.3813326,10.1593104 L11.0790478,10.4519459 C12.2688664,10.950995 16.1468204,12.1273412 16.2480298,12.0199089 C16.2624704,12.005111 16.2056103,11.0935968 16.1218053,9.99533385 C15.9388093,7.59714617 15.9471619,7.55398579 16.6436858,7.2977036 C16.8930399,7.20595698 18.5340224,6.77310364 20.2903136,6.33579451 L23.4835752,5.54070644 L30.8296278,6.68104462 C34.8699572,7.30822651 38.2072611,7.84211623 38.2458604,7.86746986 C38.2844563,7.89279062 38.3806836,8.850359 38.4596806,9.99533385 C38.5386776,11.1403251 38.6257236,12.260675 38.6531051,12.4849722 C38.7001192,12.8701107 38.7152327,12.8904166 38.9246206,12.8498377 C39.0465622,12.8261611 39.9268271,12.7600641 40.8807476,12.7028458 L40.8807066,12.7032075 Z M33.4855754,9.01588109 C33.8237347,8.92923151 34.1004128,8.83621884 34.1004128,8.80917168 C34.1004128,8.78220672 31.7244023,8.39029408 28.820392,7.9384173 L23.5403713,7.11684108 L22.1419985,7.46967097 C21.3728954,7.66372002 20.8199527,7.83876205 20.9132377,7.85862404 C21.0065277,7.87851892 23.5443129,8.24402563 26.5527686,8.67092694 C31.9678554,9.43932958 32.0269391,9.44572553 32.4467159,9.31025951 C32.6799277,9.23495493 33.1474162,9.10251424 33.4855754,9.01588109 L33.4855754,9.01588109 Z M116.742849,8.42202723 C119.588056,8.02434344 122.011358,7.67527877 122.127965,7.64630789 C122.283776,7.60766908 122.002741,7.50720817 121.067902,7.26749956 C120.36826,7.08813327 119.679018,6.94031926 119.536249,6.93906821 C119.325312,6.93742546 110.201274,8.32380244 109.152803,8.51706227 C108.886754,8.56605957 108.964479,8.60091671 109.902727,8.85262801 C110.478433,9.00718325 110.971811,9.15588513 110.999127,9.18324469 C111.02645,9.21053849 111.166007,9.21316922 111.309268,9.18982151 C111.452526,9.1656517 113.897642,8.82048381 116.742849,8.42281645 L116.742849,8.42202723 Z M5.18191697,4.88646094 C6.41795053,4.83351754 7.4941227,4.76659841 7.57341013,4.73733157 C7.69881414,4.69129384 7.67543012,4.61812673 7.39355991,4.17484913 L7.06955088,3.66531009 L5.42609213,3.68849338 C4.04589334,3.70789499 2.38335421,3.78221305 2.38335421,3.82430469 C2.38335421,3.8308815 2.30972162,4.09374051 2.2197284,4.40904965 L2.05610423,4.98233451 L2.49534449,4.98241672 C2.73692706,4.98244961 3.94588357,4.93917414 5.18191533,4.88639517 L5.18191697,4.88646094 Z M140.781478,4.16264913 C140.693144,3.85319336 140.60672,3.58581279 140.589394,3.56844999 C140.572049,3.55102142 139.511837,3.51336913 138.233333,3.48459555 L135.908771,3.43230984 L135.585138,3.96103675 C135.40714,4.2518308 135.274447,4.50272 135.290254,4.51857013 C135.328801,4.55720894 140.811712,4.78600003 140.884762,4.75203076 C140.916268,4.73723292 140.869829,4.47220356 140.781478,4.16274779 L140.781478,4.16264913 Z" id="Shape"></path>
            </g>
        </g>
    </g>
</svg>