<svg height="598" viewBox="0 0 598 598" width="598" xmlns="http://www.w3.org/2000/svg" xmlns:xlink="http://www.w3.org/1999/xlink"><radialGradient id="a" cx="50%" cy="50%" r="67.715456%"><stop offset="0" stop-color="#005688" stop-opacity=".99"/><stop offset="1"/></radialGradient><g fill="none" fill-rule="evenodd"><path d="m299 0c-165.141119 0-299 133.858881-299 299s133.858881 299 299 299 299-133.858881 299-299-133.858881-299-299-299z" fill="url(#a)" fill-rule="nonzero"/><path d="m301.121951 536c-132.073171 0-239.121951-107.04878-239.121951-239.121951 0-96.621951 57-179.341464 139.02439-216.878049-4.865853 19.4634146-6.951219 39.621951-6.951219 60.47561 0 145.280488 118.170731 263.451219 263.451219 263.451219 20.853659 0 41.012195-2.780488 60.47561-6.951219-37.536585 82.02439-120.95122 139.02439-216.878049 139.02439z" fill="#fff"/></g></svg>