<svg height="922" viewBox="0 0 922 922" width="922" xmlns="http://www.w3.org/2000/svg" xmlns:xlink="http://www.w3.org/1999/xlink"><radialGradient id="a" cx="50%" cy="50%" r="44.606612%"><stop offset="0" stop-color="#e02020"/><stop offset="1" stop-color="#f7b500"/></radialGradient><g fill="none" fill-rule="evenodd"><path d="m463.284433 179.499382c156.066392 0 282.635221 126.568829 282.635221 282.645373 0 156.066392-126.568829 282.63522-282.635221 282.63522-156.077467 0-282.645372-126.568828-282.645372-282.63522 0-156.077467 126.568828-282.645373 282.645372-282.645373zm117.90256-167.2030069c13.977025 3.7477044 22.271292 18.1219819 18.523087 32.0972256-3.736065 13.975346-18.112079 22.2686177-32.089001 18.5329402-13.989104-3.7477044-22.283372-18.1219819-18.535166-32.0972256 3.748154-13.975346 18.112079-22.28069569 32.10108-18.5329402zm-60.352286 909.4769919c14.352733-1.88628 24.461317-15.053959 22.56288-29.406653-1.886285-14.352694-15.054001-24.46125-29.394654-22.562818-14.352733 1.88628-24.461317 15.053959-22.575063 29.406653 1.886285 14.352694 15.054001 24.44917 29.406734 22.562818zm309.138385-178.70883c8.804072-11.476092 6.639333-27.934573-4.849499-36.750278-11.47669-8.803613-27.936027-6.638987-36.752191 4.837156-8.804072 11.488275-6.639334 27.946653 4.837407 36.750277 11.488873 8.827807 27.948109 6.651079 36.764273-4.837155zm-651.042761 86.899785c-11.488268-8.814674-13.652902-25.271128-4.837152-36.74598 8.803607-11.486933 25.261984-13.651315 36.750251-4.84868 11.476084 8.814674 13.652902 25.271128 4.837152 36.75806-8.815699 11.486932-25.261984 13.651315-36.750251 4.836589zm-178.70370195-309.128244c-1.88637823-14.353441 8.2106027-27.509755 22.56399245-29.408183 14.3413601-1.886378 27.509755 8.222694 29.4081833 22.563992 1.8863783 14.353441-8.2226937 27.521836-22.5639924 29.408184-14.3534409 1.886378-27.52183583-8.210603-29.40818335-22.563993zm400.93599995-520.60944514c-14.340674 1.88628007-24.449272 15.05395904-22.562912 29.40665304 1.886288 14.3526941 15.054021 24.4612502 29.406775 22.5628183 14.352753-1.88628 24.461351-15.053959 22.562912-29.406653-1.886288-14.35269407-15.054022-24.44917007-29.406775-22.56281834zm-309.1267174 178.70468014c-8.8150923 11.477222-6.6506172 27.937322 4.8368191 36.753895 11.4874773 8.80448 27.9326313 6.639641 36.7477233-4.837631 8.815093-11.489407 6.650617-27.949405-4.836819-36.753895-11.475294-8.816572-27.944712-6.651734-36.7477234 4.837631zm651.0349524-86.8956346c11.486929 8.8146736 13.651312 25.2711276 4.836588 36.7459796-8.814672 11.486933-25.271123 13.651315-36.745973 4.84868-11.48693-8.814674-13.651312-25.271128-4.848679-36.7580598 8.814673-11.4869322 25.271123-13.6513149 36.758053-4.8365896zm178.702508 309.1281206c1.88637 14.3535-8.210569 27.52195-22.563899 29.408305-14.353381 1.886386-27.521722-8.222728-29.408061-22.564086-1.886371-14.3535 8.210568-27.52195 22.563899-29.408305 14.353381-1.886386 27.521721 8.222728 29.408061 22.564086zm-461.343211-345.3195468c18.252227 0 33.05068 14.7984527 33.05068 33.0506798 0 18.252227-14.798453 33.05068-33.05068 33.05068s-33.05068-14.798453-33.05068-33.05068c0-18.2522271 14.798453-33.0506798 33.05068-33.0506798zm-104.286081 14.8099967c17.621694-4.7233976 35.7469 5.7423997 40.470025 23.3652673 4.723105 17.6227868-5.742044 35.7491158-23.375796 40.4725338-17.621694 4.71141-35.734924-5.7424-40.458049-23.377244-4.723105-17.6227868 5.742044-35.7371392 23.36382-40.4605571zm-98.008247 38.6273021c15.801408-9.124204 36.026614-3.704839 45.138224 12.097647 9.135534 15.802546 3.71656 36.017231-12.084797 45.141476-15.801409 9.124204-36.014637 3.704839-45.138224-12.097647-9.135534-15.802546-3.71656-36.017231 12.084797-45.141476zm-83.205966 65.64985c12.913935-12.904002 33.837585-12.904002 46.73944 0 12.913936 12.904003 12.913936 33.830972 0 46.746854-12.901956 12.904003-33.825606 12.904003-46.73944-.011992-12.901957-12.904003-12.901957-33.830972 0-46.734873zm-65.645452 83.209145c9.123776-15.802435 29.337552-21.221741 45.139357-12.097561 15.801805 9.136128 21.220895 29.338722 12.097079 45.153135-9.123776 15.790355-29.337552 21.209763-45.151335 12.085583-15.801805-9.12414-21.208917-29.338722-12.085101-45.141157zm-38.6294816 96.863827c4.7230487-17.621698 22.8480594-28.086849 40.4695436-23.363824 17.621485 4.723106 28.086509 22.848336 23.363542 40.470034-4.723049 17.621699-22.84806 28.08685-40.4695442 23.363825-17.6335623-4.723106-28.0865089-22.848336-23.3635414-40.470035zm-14.8106812 105.419798c0-18.23694 14.7957709-33.04469 33.0446904-33.04469 18.2608984 0 33.0566694 14.795771 33.0566694 33.04469 0 18.24892-14.80775 33.05667-33.0566694 33.05667-18.2489195 0-33.0446904-14.80775-33.0446904-33.05667zm14.8099255 105.431768c-4.7231012-17.62168 5.7420394-35.746872 23.3638012-40.469994 17.6337581-4.723101 35.7468731 5.74204 40.4699941 23.363802 4.723101 17.62168-5.742039 35.746872-23.363801 40.469994-17.6337585 4.723101-35.7468727-5.74204-40.4699943-23.363802zm38.6269273 98.00343c-9.123286-15.802547-3.704466-36.017232 12.09643-45.141477 15.812934-9.124204 36.013608-3.704839 45.148912 12.097647 9.111299 15.802547 3.704467 36.017231-12.09643 45.141476-15.812934 9.124204-36.025585 3.70484-45.148912-12.097646zm65.650077 83.205614c-12.90371-12.902833-12.90371-33.839885 0-46.742617 12.90371-12.902833 33.842185-12.902833 46.745794 0 12.903711 12.902833 12.903711 33.839885 0 46.742617-12.915691 12.914813-33.842185 12.902833-46.745794 0zm83.211425 65.653614c-15.813885-9.123835-21.221033-29.337742-12.097157-45.139649 9.123835-15.813885 29.337742-21.221032 45.139649-12.097157 15.801907 9.111847 21.221032 29.337742 12.097157 45.139649-9.135823 15.801907-29.34972 21.221032-45.139649 12.097157zm96.871139 38.626234c-17.63488-4.711856-28.088608-22.839929-23.377264-40.464381 4.735389-17.636532 22.849767-28.091239 40.472568-23.367476 17.622801 4.723844 28.088608 22.839929 23.365287 40.476359-4.723402 17.624452-22.849767 28.079261-40.460591 23.355498zm105.422404 14.810917c-18.248919 0-33.056669-14.798453-33.056669-33.05068s14.795771-33.05068 33.056669-33.05068c18.236941 0 33.044691 14.798453 33.044691 33.05068s-14.80775 33.05068-33.044691 33.05068zm105.419789-14.810792c-17.62168 4.723397-35.746872-5.730413-40.469994-23.365267-4.723101-17.622786 5.74204-35.737138 23.363802-40.472532 17.62168-4.711411 35.746872 5.754396 40.469994 23.377243 4.723101 17.622786-5.74204 35.749115-23.363802 40.460556zm98.00343-38.626507c-15.802547 9.124204-36.017232 3.704839-45.141477-12.097647-9.124204-15.802546-3.704839-36.017231 12.097647-45.141476 15.802547-9.124204 36.017231-3.704839 45.141476 12.097647 9.124204 15.802546 3.70484 36.017231-12.097646 45.141476zm83.209449-65.658581c-12.90371 12.913645-33.842185 12.913645-46.745794.01199-12.903711-12.913645-12.903711-33.836824 0-46.750367 12.90371-12.901666 33.842185-12.901666 46.745794 0 12.90371 12.913645 12.90371 33.836823 0 46.738388zm65.649779-83.200414c-9.123835 15.802435-29.337742 21.221741-45.139649 12.097561-15.813885-9.12414-21.221032-29.338722-12.097157-45.153135 9.111847-15.790355 29.337742-21.209763 45.139649-12.085583 15.801907 9.12414 21.221032 29.338722 12.097157 45.141157zm38.626234-96.863827c-4.711856 17.621698-22.839929 28.086849-40.464381 23.363824-17.636532-4.723106-28.091239-22.848336-23.367476-40.470034 4.723844-17.621699 22.839929-28.08685 40.476359-23.363825 17.624452 4.723106 28.079261 22.848336 23.355498 40.470035zm14.810917-106.559477c0 18.24892-14.798453 33.044691-33.05068 33.044691s-33.05068-14.795771-33.05068-33.044691c0-18.248919 14.798453-33.04469 33.05068-33.056669 18.252227.01199 33.05068 14.80775 33.05068 33.056669zm-14.810913-104.299891c4.7239 17.636728-5.731022 35.752892-23.367754 40.476809-17.624662 4.723897-35.740942-5.731018-40.464862-23.367735-4.723901-17.624649 5.743011-35.740914 23.367754-40.464831 17.624661-4.723897 35.75292 5.743006 40.464862 23.355757zm-38.626386-97.99772c9.124204 15.800545 3.704839 36.01267-12.097647 45.13576-15.802546 9.135036-36.017231 3.716357-45.141476-12.084138-9.124204-15.812523-3.704839-36.024648 12.097647-45.147737 15.802546-9.123049 36.017231-3.70437 45.141476 12.096115zm-65.658581-83.207357c12.913645 12.90371 12.913645 33.842185.01199 46.745794-12.913645 12.903711-33.836824 12.903711-46.750367 0-12.901666-12.90371-12.901666-33.842185 0-46.745794 12.913645-12.90371 33.836823-12.90371 46.738388 0zm-83.200515-65.646167c15.802532 9.11302 21.221871 29.329539 12.097635 45.14546-9.124196 15.803942-29.338902 21.211785-45.141434 12.086735-15.802531-9.11302-21.221871-29.341519-12.097635-45.14546 9.124196-15.803942 29.338902-21.211785 45.141434-12.086735zm-435.350339-49.9234634c12.526953-7.2426722 28.560568-2.9381774 35.803418 9.5883821 7.230821 12.538619 2.938274 28.5717045-9.588699 35.8022353-12.539033 7.242672-28.572648 2.938177-35.815498-9.5883821-7.230821-12.526539-2.926184-28.5596245 9.600789-35.8022353zm-216.2116635 281.4517354c3.7361219-13.977226 18.1123559-22.271614 32.0894917-18.523354 13.9772383 3.748209 22.2837124 18.112341 18.5354495 32.101544-3.7482118 13.965044-18.1244355 22.271614-32.1015714 18.523354-13.9772382-3.736119-22.27163274-18.11234-18.5233698-32.101544zm47.0559062 352.675608c-7.230879-12.526424-2.9262074-28.559362 9.6008665-35.801907 12.5270535-7.230515 28.5607975-2.93815 35.8037058 9.600384 7.230879 12.526424 2.938298 28.559362-9.6008667 35.801907-12.5270534 7.230515-28.5607974 2.93815-35.8037056-9.600384zm281.4691463 216.214801c-13.98721-3.74741-22.280355-18.120556-18.532657-32.094699 3.747647-13.974246 18.121705-22.278942 32.096735-18.531481 13.975133 3.747409 22.268277 18.120555 18.532657 32.094698-3.747647 13.974246-18.121705 22.278942-32.096735 18.531482zm352.677346-47.065071c-12.539273 7.242308-28.573194 2.93803-35.804103-9.587899-7.24305-12.537988-2.950421-28.570267 9.588883-35.800434 12.539273-7.242308 28.573195-2.950119 35.804103 9.5879 7.230959 12.537988 2.93833 28.558187-9.588883 35.800433zm216.203876-281.451632c-3.747704 13.977025-18.121982 22.271292-32.097226 18.523087-13.975346-3.748155-22.268617-18.112079-18.53294-32.089001 3.747704-13.989104 18.121982-22.283372 32.097226-18.535166 13.975346 3.748154 22.280695 18.112079 18.53294 32.10108zm-47.06536-352.675888c7.24305 12.526424 2.938331 28.559362-9.588882 35.801907-12.539273 7.230515-28.573195 2.93815-35.804103-9.600384-7.23096-12.526424-2.950422-28.559362 9.588882-35.801907 12.539273-7.230515 28.573195-2.93815 35.804103 9.600384zm-295.642638-157.8559798c17.621698 4.7238473 28.086849 22.8399445 23.363824 40.4644088-4.723106 17.636544-22.848336 28.091258-40.470034 23.367492-17.621699-4.711859-28.08685-22.839945-23.363825-40.464409 4.723106-17.6365438 22.848336-28.0912578 40.470035-23.3674918z" fill="url(#a)"/><path d="m464.584078 229c18.277281.53377 27.415922 7.020479 27.415922 19.460129s-9.138641 18.429985-27.415922 17.971006c-108.488467 0-196.505118 87.791524-197.098387 196.315101.207903 18.169176-6.285501 27.253764-19.48021 27.253764s-19.519018-9.084588-18.972927-27.253764c2.071049-127.955616 107.307978-233.746236 235.551524-233.746236z" fill="#fff" fill-rule="nonzero"/></g></svg>